<?xml version="1.0" encoding="UTF-8"?>
<svg id="Layer_1" xmlns="http://www.w3.org/2000/svg" version="1.1" viewBox="0 0 50 30">
  <!-- Generator: Adobe Illustrator 29.5.1, SVG Export Plug-In . SVG Version: 2.1.0 Build 141)  -->
  <defs>
    <style>
      .st0 {
        fill-rule: evenodd;
      }

      .st0, .st1 {
        fill: #006497;
      }

      .st2 {
        fill: #006497;
      }
    </style>
  </defs>
  <path class="st1" d="M31.97,18.6c.85,0,1.66.43,1.66,1.37,0,1.09-.85,1.87-1.57,2.3-.54.33-1.15.53-1.79.53-.85,0-1.66-.43-1.66-1.37,0-1.09.85-1.87,1.57-2.3.54-.33,1.15-.53,1.79-.53Z"/>
  <path class="st2" d="M33.48,7.2h-.19c-.09,0-.15.07-.15.15v12.47c0,.09.07.15.15.15h.19c.09,0,.15-.07.15-.15V7.35c0-.09-.07-.15-.15-.15Z"/>
  <path class="st2" d="M33.63,7.36v3.86h-.25v-3.86h.25ZM33.63,7.36c0,3.04,3.19,5.18,3.19,8.22,0,1.09-.23,2.18-.63,3.19-.08.12-.2.19-.31.19-.2,0-.4-.17-.36-.42.4-.94.65-1.94.65-2.97,0-1.59-1.45-3.21-2.55-4.37v-3.85h0Z"/>
  <path class="st2" d="M33.14,19.83c0,.09.07.15.15.15h.19c.09,0,.15-.07.15-.15V7.36c0-.09-.07-.15-.15-.15h-.19c-.09,0-.15.07-.15.15"/>
  <text/>
  <g id="layer1">
    <g id="g128">
      <path class="st0" d="M21.14,12.99l-1.08,3.72c-.61,2.02-1.11,3.73-1.11,3.76-.04.11-.3.23-.52.23-.12,0-.3-.05-.41-.12-.05-.04-.09-.06-.09-.06l1.04-2.92,1.06-2.92-.21.07c-.87.29-1.62.4-2.07.27-.43-.11-.81-.4-.99-.75-.12-.22-.14-.36-.14-.63,0-.2,0-.24.04-.38.16-.45.51-.77.99-.86.28-.07.6-.02.85.14.28.18.4.4.5.88.12.49.16.58.33.67.17.07.29.05.49-.11.21-.18.62-.66.78-.93.03-.06.09-.13.12-.17.12-.08.29-.05.38.06l.04.05Z"/>
    </g>
  </g>
</svg>