<?xml version="1.0" encoding="UTF-8"?>
<svg id="Layer_1" xmlns="http://www.w3.org/2000/svg" version="1.1" viewBox="0 0 50 30">
  <!-- Generator: Adobe Illustrator 29.5.1, SVG Export Plug-In . SVG Version: 2.1.0 Build 141)  -->
  <defs>
    <style>
      .st0 {
        fill: #006497;
      }
    </style>
  </defs>
  <path class="st0" d="M19.73,18.6c.85,0,1.66.43,1.66,1.37,0,1.09-.85,1.87-1.57,2.3-.54.33-1.15.53-1.79.53-.85,0-1.66-.43-1.66-1.37,0-1.09.85-1.87,1.57-2.3.54-.33,1.15-.53,1.79-.53Z"/>
  <path class="st0" d="M21.24,7.2h-.19c-.09,0-.15.07-.15.15v12.47c0,.09.07.15.15.15h.19c.09,0,.15-.07.15-.15V7.35c0-.09-.07-.15-.15-.15Z"/>
  <path class="st0" d="M31.97,18.6c.85,0,1.66.43,1.66,1.37,0,1.09-.85,1.87-1.57,2.3-.54.33-1.15.53-1.79.53-.85,0-1.66-.43-1.66-1.37,0-1.09.85-1.87,1.57-2.3.54-.33,1.15-.53,1.79-.53Z"/>
  <path class="st0" d="M33.63,8.52v-1.17c0-.09-.07-.15-.15-.15h-12.44c-.09,0-.15.07-.15.15v1.17c0,.09.07.15.15.15h12.44c.09,0,.15-.07.15-.15Z"/>
  <path class="st0" d="M33.48,7.2h-.19c-.09,0-.15.07-.15.15v12.47c0,.09.07.15.15.15h.19c.09,0,.15-.07.15-.15V7.35c0-.09-.07-.15-.15-.15Z"/>
  <path class="st0" d="M35.37,20.7c0-.48.39-.87.87-.87s.87.39.87.87-.39.87-.87.87-.87-.39-.87-.87Z"/>
  <path class="st0" d="M26.04,10.64v-1.17c0-.09-.07-.15-.15-.15h-4.79c-.09,0-.15.07-.15.15v1.17c0,.09.07.15.15.15h4.79c.09,0,.15-.07.15-.15Z"/>
</svg>