<?xml version="1.0" encoding="UTF-8"?>
<svg id="Layer_1" xmlns="http://www.w3.org/2000/svg" version="1.1" viewBox="0 0 50 30">
  <!-- Generator: Adobe Illustrator 29.5.1, SVG Export Plug-In . SVG Version: 2.1.0 Build 141)  -->
  <defs>
    <style>
      .st0 {
        fill: #006497;
      }
    </style>
  </defs>
  <path class="st0" d="M12.6,18.6c.85,0,1.66.43,1.66,1.37,0,1.09-.85,1.87-1.57,2.3-.54.33-1.15.53-1.79.53-.85,0-1.66-.43-1.66-1.37,0-1.09.85-1.87,1.57-2.3.54-.33,1.15-.53,1.79-.53Z"/>
  <path class="st0" d="M14.11,7.2h-.19c-.09,0-.15.07-.15.15v12.47c0,.09.07.15.15.15h.19c.09,0,.15-.07.15-.15V7.35c0-.09-.07-.15-.15-.15Z"/>
  <path class="st0" d="M24.87,18.38c.85,0,1.66.43,1.66,1.37,0,1.09-.85,1.87-1.57,2.3-.54.33-1.15.53-1.79.53-.85,0-1.66-.43-1.66-1.37,0-1.09.85-1.87,1.57-2.3.54-.33,1.15-.53,1.79-.53Z"/>
  <path class="st0" d="M37.13,18.53c.85,0,1.66.43,1.66,1.37,0,1.09-.85,1.87-1.57,2.3-.54.33-1.15.53-1.79.53-.85,0-1.66-.43-1.66-1.37,0-1.09.85-1.87,1.57-2.3.54-.33,1.15-.53,1.79-.53Z"/>
  <path class="st0" d="M38.64,7.2h-.19c-.09,0-.15.07-.15.15v12.47c0,.09.07.15.15.15h.19c.09,0,.15-.07.15-.15V7.35c0-.09-.07-.15-.15-.15Z"/>
  <path class="st0" d="M26.38,7.2h-.19c-.09,0-.15.07-.15.15v12.47c0,.09.07.15.15.15h.19c.09,0,.15-.07.15-.15V7.35c0-.09-.07-.15-.15-.15Z"/>
  <path class="st0" d="M38.79,8.52v-1.17c0-.09-.07-.15-.15-.15H13.92c-.09,0-.15.07-.15.15v1.17c0,.09.07.15.15.15h24.72c.09,0,.15-.07.15-.15Z"/>
  <path class="st0" d="M27.78,2.18c0-.2-.1-.4-.2-.6-.2-.2-.4-.2-.6-.2s-.4.1-.6.2c-.2.1-.3.3-.5.6h.1c.1-.3.4-.4.6-.4s.3,0,.4.1.2.3.2.4c0,.2-.1.4-.3.6-.3.2-.7.4-1.2.5v.1c.2,0,.4.1.6.2s.3.2.4.4.2.4.2.6c0,.3-.1.5-.2.8-.1.2-.3.4-.5.4h-.2c-.1,0-.2-.1-.3-.2s-.2-.1-.3-.1h-.2c-.1,0-.2,0-.2.1-.1-.1-.2,0-.2.1s0,.2.1.2c.1.1.4.1.6.1.3,0,.6-.1.9-.2.3-.2.5-.4.7-.7.2-.3.2-.6.2-.9s-.1-.5-.2-.7c-.1-.2-.3-.3-.5-.4.4-.2.6-.3.8-.5.3-.1.4-.3.4-.5Z"/>
</svg>
