<?xml version="1.0" encoding="UTF-8"?>
<svg id="Layer_1" xmlns="http://www.w3.org/2000/svg" version="1.1" viewBox="0 0 54 24">
  <!-- Generator: Adobe Illustrator 29.5.1, SVG Export Plug-In . SVG Version: 2.1.0 Build 141)  -->
  <defs>
    <style>
      .st0 {
        fill: #006497;
      }
    </style>
  </defs>
  <path class="st0" d="M9.45,15.53c.85,0,1.66.43,1.66,1.37,0,1.09-.85,1.87-1.57,2.3-.54.33-1.15.53-1.79.53-.85,0-1.66-.43-1.66-1.37,0-1.09.85-1.87,1.57-2.3.54-.33,1.15-.53,1.79-.53Z"/>
  <path class="st0" d="M10.61,4.72v.57c0,.27.07.45.15.45h12.47c.09,0,.15-.21.15-.45v-.57c0-.27-.07-.45-.15-.45h-12.47c-.09,0-.15.21-.15.45Z"/>
  <path class="st0" d="M10.96,4.27h-.19c-.09,0-.15.07-.15.15v12.47c0,.09.07.15.15.15h.19c.09,0,.15-.07.15-.15V4.42c0-.09-.07-.15-.15-.15Z"/>
  <path class="st0" d="M21.72,15.38c.85,0,1.66.43,1.66,1.37,0,1.09-.85,1.87-1.57,2.3-.54.33-1.15.53-1.79.53-.85,0-1.66-.43-1.66-1.37,0-1.09.85-1.87,1.57-2.3.54-.33,1.15-.53,1.79-.53Z"/>
  <path class="st0" d="M22.87,4.27v12.47c0,.09.07.15.15.15h.19c.09,0,.15-.07.15-.15V4.27"/>
  <path class="st0" d="M33.98,15.53c.85,0,1.66.43,1.66,1.37,0,1.09-.85,1.87-1.57,2.3-.54.33-1.15.53-1.79.53-.85,0-1.66-.43-1.66-1.37,0-1.09.85-1.87,1.57-2.3.54-.33,1.15-.53,1.79-.53Z"/>
  <path class="st0" d="M35.49,4.27h-.19c-.09,0-.15.07-.15.15v12.47c0,.09.07.15.15.15h.19c.09,0,.15-.07.15-.15V4.42c0-.09-.07-.15-.15-.15Z"/>
  <path class="st0" d="M22.87,4.72v.57c0,.27.07.45.15.45h12.47c.09,0,.15-.21.15-.45v-.57c0-.27-.07-.45-.15-.45h-12.47c-.09,0-.15.21-.15.45Z"/>
  <path class="st0" d="M35.14,4.72v.57c0,.27.07.45.15.45h12.47c.09,0,.15-.21.15-.45v-.57c0-.27-.07-.45-.15-.45h-12.47c-.09,0-.15.21-.15.45Z"/>
  <path class="st0" d="M46.25,15.53c.85,0,1.66.43,1.66,1.37,0,1.09-.85,1.87-1.57,2.3-.54.33-1.15.53-1.79.53-.85,0-1.66-.43-1.66-1.37,0-1.09.85-1.87,1.57-2.3.54-.33,1.15-.53,1.79-.53Z"/>
  <path class="st0" d="M47.76,4.27h-.19c-.09,0-.15.07-.15.15v12.47c0,.09.07.15.15.15h.19c.09,0,.15-.07.15-.15V4.42c0-.09-.07-.15-.15-.15Z"/>
  <path class="st0" d="M10.61,7.17v.57c0,.27.07.45.15.45h12.47c.09,0,.15-.21.15-.45v-.57c0-.27-.07-.45-.15-.45h-12.47c-.09,0-.15.21-.15.45Z"/>
  <path class="st0" d="M22.87,7.17v.57c0,.27.07.45.15.45h12.47c.09,0,.15-.21.15-.45v-.57c0-.27-.07-.45-.15-.45h-12.47c-.09,0-.15.21-.15.45Z"/>
  <path class="st0" d="M35.14,7.17v.57c0,.27.07.45.15.45h12.47c.09,0,.15-.21.15-.45v-.57c0-.27-.07-.45-.15-.45h-12.47c-.09,0-.15.21-.15.45Z"/>
</svg>