<?xml version="1.0" encoding="utf-8"?>
<!-- Generator: $$$/GeneralStr/196=Adobe Illustrator 27.6.0, SVG Export Plug-In . SVG Version: 6.00 Build 0)  -->
<svg version="1.1" id="Ebene_1" xmlns="http://www.w3.org/2000/svg" xmlns:xlink="http://www.w3.org/1999/xlink" x="0px" y="0px"
	 viewBox="0 0 24 24" style="enable-background:new 0 0 24 24;" xml:space="preserve">
<style type="text/css">
	.st0{fill:#006497;}
</style>
<a xlink:href="textedit://C:/Users/tobia/Desktop/notes/notes.ly:21:2:3" >
	<g transform="translate(8.8287, 6.6524)">
		<path class="st0" d="M2.7,3.6C1.9,3.6,1.6,4.2,1.6,5c0,1.2,0.9,2.2,2.1,2.2c0.8,0,1.1-0.7,1.1-1.4C4.8,4.5,3.9,3.6,2.7,3.6z
			 M7.1,5.3c0,0.7-0.5,1.2-1.1,1.5C5.1,7.3,4.1,7.5,3.2,7.5S1.3,7.3,0.4,6.9C-0.2,6.5-0.7,6-0.7,5.3s0.5-1.2,1.1-1.5
			c0.8-0.5,1.8-0.6,2.8-0.6s1.9,0.2,2.8,0.6C6.5,4.2,7.1,4.7,7.1,5.3z"/>
	</g>
</a>
<g>
	<g transform="translate(6.6726, 30.6524)">
		<path class="st0" d="M10.9-20.7c0-0.5,0.4-0.9,0.9-0.9c0.5,0,0.9,0.4,0.9,0.9c0,0.5-0.4,0.9-0.9,0.9
			C11.3-19.9,10.9-20.3,10.9-20.7z"/>
	</g>
</g>
</svg>
