<svg width="24" height="24" viewBox="0 0 24 24" fill="none" xmlns="http://www.w3.org/2000/svg">
<path d="M9.64644 15.6001C10.4981 15.6001 11.311 16.0336 11.311 16.9704C11.311 18.062 10.4593 18.8362 9.73934 19.2698C9.19741 19.5949 8.58579 19.7962 7.95095 19.7962C7.09934 19.7962 6.28644 19.3627 6.28644 18.4259C6.28644 17.3343 7.13805 16.5601 7.85805 16.1265C8.39999 15.8014 9.0116 15.6001 9.64644 15.6001Z" fill="#006497"/>
<path d="M15.9871 17.6982C15.9871 17.2182 16.3742 16.8311 16.8542 16.8311C17.3342 16.8311 17.7213 17.2182 17.7213 17.6982C17.7213 18.1782 17.3342 18.5652 16.8542 18.5652C16.3742 18.5652 15.9871 18.1782 15.9871 17.6982Z" fill="#006497"/>
<path d="M11.1561 4.2041H10.9626C10.8771 4.2041 10.8077 4.27343 10.8077 4.35894V16.8312C10.8077 16.9167 10.8771 16.986 10.9626 16.986H11.1561C11.2416 16.986 11.311 16.9167 11.311 16.8312V4.35894C11.311 4.27343 11.2416 4.2041 11.1561 4.2041Z" fill="#006497"/>
<path d="M11.311 4.35889C11.311 7.09179 14.4077 8.88018 14.4077 11.6053C14.4077 12.1163 14.2684 12.6118 14.0516 13.0686C14.3303 13.6415 14.5006 14.2221 14.5006 14.8724C14.5006 15.8479 14.2684 16.8002 13.8658 17.6982C13.7884 17.8221 13.6645 17.884 13.5561 17.884C13.3548 17.884 13.1535 17.7137 13.2 17.466C13.6026 16.6608 13.8503 15.7705 13.8503 14.8724C13.8503 13.3782 12.4026 11.9382 11.3032 10.9086V12.0621H11.0555V4.35889H11.3032H11.311ZM13.6413 12.3331C13.7187 12.1008 13.7652 11.8531 13.7652 11.6053C13.7652 10.1266 12.3639 8.67114 11.311 7.64147C11.311 9.46082 12.6968 10.8157 13.6413 12.3331Z" fill="#006497"/>
</svg>
