<svg width="24" height="24" viewBox="0 0 24 24" fill="none" xmlns="http://www.w3.org/2000/svg">
<path d="M12.9213 4.35889C12.9213 7.09179 16.0181 8.88018 16.0181 11.6053C16.0181 12.1163 15.8787 12.6118 15.662 13.0686C15.9407 13.6415 16.111 14.2221 16.111 14.8724C16.111 15.8479 15.8787 16.8002 15.4762 17.6982C15.3987 17.8221 15.2749 17.884 15.1665 17.884C14.9652 17.884 14.7639 17.7137 14.8103 17.466C15.2129 16.6608 15.4607 15.7705 15.4607 14.8724C15.4607 13.3782 14.0129 11.9382 12.9136 10.9086V12.0621H12.6658V4.35889H12.9136H12.9213ZM15.2516 12.3331C15.3291 12.1008 15.3755 11.8531 15.3755 11.6053C15.3755 10.1266 13.9742 8.67114 12.9213 7.64147C12.9213 9.46082 14.3071 10.8157 15.2516 12.3331Z" fill="#006497"/>
<path d="M11.249 15.6001C12.1007 15.6001 12.9136 16.0336 12.9136 16.9704C12.9136 18.062 12.0619 18.8362 11.3419 19.2698C10.8 19.5949 10.1884 19.7962 9.55355 19.7962C8.70194 19.7962 7.88904 19.3627 7.88904 18.4259C7.88904 17.3343 8.74065 16.5601 9.46065 16.1265C10.0026 15.8014 10.6142 15.6001 11.249 15.6001Z" fill="#006497"/>
<path d="M12.7665 4.2041H12.5729C12.4874 4.2041 12.4181 4.27343 12.4181 4.35894V16.8312C12.4181 16.9167 12.4874 16.986 12.5729 16.986H12.7665C12.852 16.986 12.9213 16.9167 12.9213 16.8312V4.35894C12.9213 4.27343 12.852 4.2041 12.7665 4.2041Z" fill="#006497"/>
</svg>
