<svg width="24" height="24" viewBox="0 0 24 24" fill="none" xmlns="http://www.w3.org/2000/svg">
<path d="M11.4968 10.2735C10.7226 10.2735 10.4361 10.9393 10.4361 11.6283C10.4361 12.8128 11.3187 13.7264 12.5032 13.7264C13.2774 13.7264 13.5639 13.0606 13.5639 12.3715C13.5639 11.187 12.6813 10.2735 11.4968 10.2735ZM15.7858 11.9999C15.7858 12.6657 15.2593 13.1535 14.6787 13.4786C13.858 13.9277 12.9213 14.098 11.9922 14.098C11.0632 14.098 10.1419 13.9277 9.32127 13.4786C8.73288 13.1535 8.21417 12.658 8.21417 11.9999C8.21417 11.3419 8.74062 10.8464 9.32127 10.5212C10.1419 10.0722 11.0632 9.90186 11.9922 9.90186C12.9213 9.90186 13.858 10.0722 14.6787 10.5212C15.2671 10.8464 15.7858 11.3419 15.7858 11.9999Z" fill="#006497"/>
</svg>
