<svg width="24" height="24" viewBox="0 0 24 24" fill="none" xmlns="http://www.w3.org/2000/svg">
<path d="M12.4568 16.6995C12.4568 16.3279 12.1316 16.0647 11.8065 16.0647C11.7445 16.0647 11.6826 16.0647 11.6207 16.0802C11.1407 16.2195 10.4207 16.6995 9.84776 17.0711C9.27486 17.4427 8.55486 17.8918 8.24518 18.2711C8.13679 18.395 8.09034 18.5498 8.09034 18.7047C8.09034 19.0763 8.4155 19.3395 8.74066 19.3395C8.8026 19.3395 8.86454 19.3395 8.92647 19.324C9.40647 19.1847 10.111 18.7047 10.6839 18.3331C11.2568 17.9615 11.9768 17.5124 12.2865 17.1331C12.3949 17.0092 12.4568 16.8544 12.4568 16.6995ZM11.6516 15.6079C12.3639 15.6079 12.9136 15.9331 12.9136 16.6995C12.9136 16.9937 12.8516 17.3034 12.7587 17.5821C12.5729 18.155 12.2632 18.6892 11.7678 19.0298C10.9471 19.5873 10.0258 19.804 8.88002 19.804C8.16776 19.804 7.6026 19.4789 7.6026 18.7124C7.6026 18.4182 7.68002 18.1086 7.77292 17.8298C7.95873 17.2569 8.25292 16.7227 8.74841 16.3821C9.56905 15.8247 10.5058 15.6079 11.6516 15.6079Z" fill="#006497"/>
<path d="M14.6633 17.6982C14.6633 17.2182 15.0504 16.8311 15.5304 16.8311C16.0104 16.8311 16.3975 17.2182 16.3975 17.6982C16.3975 18.1782 16.0104 18.5652 15.5304 18.5652C15.0504 18.5652 14.6633 18.1782 14.6633 17.6982Z" fill="#006497"/>
<path d="M12.7742 4.2041H12.5807C12.4952 4.2041 12.4258 4.27343 12.4258 4.35894V16.5447C12.4258 16.6303 12.4952 16.6996 12.5807 16.6996H12.7742C12.8597 16.6996 12.9291 16.6303 12.9291 16.5447V4.35894C12.9291 4.27343 12.8597 4.2041 12.7742 4.2041Z" fill="#006497"/>
</svg>
