<svg width="24" height="24" viewBox="0 0 24 24" fill="none" xmlns="http://www.w3.org/2000/svg">
<path d="M14.191 16.6995C14.191 16.3279 13.8658 16.0647 13.5407 16.0647C13.4787 16.0647 13.4168 16.0647 13.3549 16.0802C12.8749 16.2195 12.1549 16.6995 11.582 17.0711C11.009 17.4427 10.289 17.8918 9.97937 18.2711C9.87099 18.395 9.82453 18.5498 9.82453 18.7047C9.82453 19.0763 10.1497 19.3395 10.4749 19.3395C10.5368 19.3395 10.5987 19.3395 10.6607 19.324C11.1407 19.1847 11.8452 18.7047 12.4181 18.3331C12.991 17.9615 13.711 17.5124 14.0207 17.1331C14.1291 17.0092 14.191 16.8544 14.191 16.6995ZM13.3858 15.6079C14.0981 15.6079 14.6478 15.9331 14.6478 16.6995C14.6478 16.9937 14.5858 17.3034 14.4929 17.5821C14.3071 18.155 13.9974 18.6892 13.502 19.0298C12.6813 19.5873 11.76 19.804 10.6142 19.804C9.90195 19.804 9.33679 19.4789 9.33679 18.7124C9.33679 18.4182 9.41421 18.1086 9.50711 17.8298C9.69292 17.2569 9.98711 16.7227 10.4826 16.3821C11.3032 15.8247 12.24 15.6079 13.3858 15.6079Z" fill="#006497"/>
<path d="M14.5007 4.2041H14.3071C14.2216 4.2041 14.1523 4.27343 14.1523 4.35894V16.5447C14.1523 16.6303 14.2216 16.6996 14.3071 16.6996H14.5007C14.5862 16.6996 14.6555 16.6303 14.6555 16.5447V4.35894C14.6555 4.27343 14.5862 4.2041 14.5007 4.2041Z" fill="#006497"/>
</svg>
