<svg width="24" height="24" viewBox="0 0 24 24" fill="none" xmlns="http://www.w3.org/2000/svg">
<path d="M9.64644 17.0479C10.4981 17.0479 11.311 17.4814 11.311 18.4182C11.311 19.5098 10.4593 20.284 9.73934 20.7175C9.19741 21.0427 8.58579 21.244 7.95095 21.244C7.09934 21.244 6.28644 20.8104 6.28644 19.8737C6.28644 18.782 7.13805 18.0079 7.85805 17.5743C8.39999 17.2491 9.0116 17.0479 9.64644 17.0479Z" fill="#006497"/>
<path d="M15.9871 19.1459C15.9871 18.6659 16.3742 18.2788 16.8542 18.2788C17.3342 18.2788 17.7213 18.6659 17.7213 19.1459C17.7213 19.6259 17.3342 20.013 16.8542 20.013C16.3742 20.013 15.9871 19.6259 15.9871 19.1459Z" fill="#006497"/>
<path d="M11.1561 2.75635H10.9626C10.8771 2.75635 10.8077 2.82567 10.8077 2.91119V18.2712C10.8077 18.3567 10.8771 18.426 10.9626 18.426H11.1561C11.2416 18.426 11.311 18.3567 11.311 18.2712V2.91119C11.311 2.82567 11.2416 2.75635 11.1561 2.75635Z" fill="#006497"/>
<path d="M11.311 6.17823V6.25565C11.311 7.95113 12.6194 9.25178 13.5329 10.6531C13.5794 10.4827 13.6103 10.2969 13.6103 10.1111C13.6103 8.67888 12.3019 7.22339 11.311 6.17823ZM11.311 2.91113C11.311 5.61307 14.2607 7.41694 14.2607 10.1189C14.2607 10.5679 14.1368 11.0015 13.9665 11.4118C14.2297 11.9537 14.4155 12.5034 14.4155 13.1227C14.4155 13.6802 14.2916 14.2298 14.0594 14.7408C14.3381 15.2827 14.5084 15.8479 14.5084 16.4827C14.5084 17.4118 14.2761 18.3176 13.8736 19.1537C13.7961 19.2776 13.6723 19.324 13.5639 19.324C13.3626 19.324 13.1613 19.1537 13.2077 18.906C13.6103 18.1473 13.8581 17.3344 13.8581 16.4827C13.8581 15.0815 12.4103 13.7808 11.311 12.8905V14.4776H11.0632V2.91113H11.311ZM11.311 9.54597V9.62339C11.311 11.3498 12.6658 12.6195 13.6103 14.0208C13.7032 13.7266 13.7652 13.4324 13.7652 13.1227C13.7652 11.7369 12.3639 10.4518 11.311 9.54597Z" fill="#006497"/>
</svg>
