<svg width="24" height="24" viewBox="0 0 24 24" fill="none" xmlns="http://www.w3.org/2000/svg">
<path d="M12.9213 6.17823V6.25565C12.9213 7.95113 14.2297 9.25178 15.1433 10.6531C15.1897 10.4827 15.2207 10.2969 15.2207 10.1111C15.2207 8.67888 13.9123 7.22339 12.9213 6.17823ZM12.9213 2.91113C12.9213 5.61307 15.871 7.41694 15.871 10.1189C15.871 10.5679 15.7471 11.0015 15.5768 11.4118C15.84 11.9537 16.0258 12.5034 16.0258 13.1227C16.0258 13.6802 15.902 14.2298 15.6697 14.7408C15.9484 15.2827 16.1187 15.8479 16.1187 16.4827C16.1187 17.4118 15.8865 18.3176 15.4839 19.1537C15.4065 19.2776 15.2826 19.324 15.1742 19.324C14.9729 19.324 14.7716 19.1537 14.8181 18.906C15.2207 18.1473 15.4684 17.3344 15.4684 16.4827C15.4684 15.0815 14.0207 13.7808 12.9213 12.8905V14.4776H12.6736V2.91113H12.9213ZM12.9213 9.54597V9.62339C12.9213 11.3498 14.2762 12.6195 15.2207 14.0208C15.3136 13.7266 15.3755 13.4324 15.3755 13.1227C15.3755 11.7369 13.9742 10.4518 12.9213 9.54597Z" fill="#006497"/>
<path d="M11.249 17.0479C12.1007 17.0479 12.9136 17.4814 12.9136 18.4182C12.9136 19.5098 12.0619 20.284 11.3419 20.7175C10.8 21.0427 10.1884 21.244 9.55355 21.244C8.70194 21.244 7.88904 20.8104 7.88904 19.8737C7.88904 18.782 8.74065 18.0079 9.46065 17.5743C10.0026 17.2491 10.6142 17.0479 11.249 17.0479Z" fill="#006497"/>
<path d="M12.7665 2.75635H12.5729C12.4874 2.75635 12.4181 2.82567 12.4181 2.91119V18.2712C12.4181 18.3567 12.4874 18.426 12.5729 18.426H12.7665C12.852 18.426 12.9213 18.3567 12.9213 18.2712V2.91119C12.9213 2.82567 12.852 2.75635 12.7665 2.75635Z" fill="#006497"/>
</svg>
