<svg width="24" height="24" viewBox="0 0 24 24" fill="none" xmlns="http://www.w3.org/2000/svg">
<path d="M11.1174 15.6001C11.9691 15.6001 12.782 16.0336 12.782 16.9704C12.782 18.062 11.9303 18.8362 11.2103 19.2698C10.6684 19.5949 10.0568 19.7962 9.42196 19.7962C8.57035 19.7962 7.75745 19.3627 7.75745 18.4259C7.75745 17.3343 8.60906 16.5601 9.32906 16.1265C9.87099 15.8014 10.4826 15.6001 11.1174 15.6001Z" fill="#006497"/>
<path d="M14.5162 17.6982C14.5162 17.2182 14.9033 16.8311 15.3833 16.8311C15.8633 16.8311 16.2504 17.2182 16.2504 17.6982C16.2504 18.1782 15.8633 18.5652 15.3833 18.5652C14.9033 18.5652 14.5162 18.1782 14.5162 17.6982Z" fill="#006497"/>
<path d="M12.6271 4.2041H12.4336C12.3481 4.2041 12.2787 4.27343 12.2787 4.35894V16.8312C12.2787 16.9167 12.3481 16.986 12.4336 16.986H12.6271C12.7126 16.986 12.782 16.9167 12.782 16.8312V4.35894C12.782 4.27343 12.7126 4.2041 12.6271 4.2041Z" fill="#006497"/>
</svg>
