<svg width="24" height="24" viewBox="0 0 24 24" fill="none" xmlns="http://www.w3.org/2000/svg">
<path d="M12.8516 15.6001C13.7033 15.6001 14.5162 16.0336 14.5162 16.9704C14.5162 18.062 13.6645 18.8362 12.9445 19.2698C12.4026 19.5949 11.791 19.7962 11.1562 19.7962C10.3045 19.7962 9.49164 19.3627 9.49164 18.4259C9.49164 17.3343 10.3433 16.5601 11.0633 16.1265C11.6052 15.8014 12.2168 15.6001 12.8516 15.6001Z" fill="#006497"/>
<path d="M14.3613 4.2041H14.1678C14.0823 4.2041 14.0129 4.27343 14.0129 4.35894V16.8312C14.0129 16.9167 14.0823 16.986 14.1678 16.986H14.3613C14.4468 16.986 14.5162 16.9167 14.5162 16.8312V4.35894C14.5162 4.27343 14.4468 4.2041 14.3613 4.2041Z" fill="#006497"/>
</svg>
