<svg width="24" height="24" viewBox="0 0 24 24" fill="none" xmlns="http://www.w3.org/2000/svg">
<path d="M9.64644 15.6001C10.4981 15.6001 11.311 16.0336 11.311 16.9704C11.311 18.062 10.4593 18.8362 9.73934 19.2698C9.19741 19.5949 8.58579 19.7962 7.95095 19.7962C7.09934 19.7962 6.28644 19.3627 6.28644 18.4259C6.28644 17.3343 7.13805 16.5601 7.85805 16.1265C8.39999 15.8014 9.0116 15.6001 9.64644 15.6001Z" fill="#006497"/>
<path d="M15.9871 17.6982C15.9871 17.2182 16.3742 16.8311 16.8542 16.8311C17.3342 16.8311 17.7213 17.2182 17.7213 17.6982C17.7213 18.1782 17.3342 18.5652 16.8542 18.5652C16.3742 18.5652 15.9871 18.1782 15.9871 17.6982Z" fill="#006497"/>
<path d="M11.1561 4.2041H10.9626C10.8771 4.2041 10.8077 4.27343 10.8077 4.35894V16.8312C10.8077 16.9167 10.8771 16.986 10.9626 16.986H11.1561C11.2416 16.986 11.311 16.9167 11.311 16.8312V4.35894C11.311 4.27343 11.2416 4.2041 11.1561 4.2041Z" fill="#006497"/>
<path d="M11.311 4.35889V8.21437H11.0632V4.35889H11.311ZM11.311 4.35889C11.311 7.40147 14.5007 9.53824 14.5007 12.5808C14.5007 13.6724 14.2684 14.7563 13.8658 15.7705C13.7884 15.8944 13.6645 15.9563 13.5561 15.9563C13.3548 15.9563 13.1536 15.786 13.2 15.5382C13.6026 14.5937 13.8503 13.595 13.8503 12.5731C13.8503 10.986 12.4026 9.36792 11.3032 8.20663V4.35889H11.311Z" fill="#006497"/>
</svg>
