<svg width="24" height="24" viewBox="0 0 24 24" fill="none" xmlns="http://www.w3.org/2000/svg">
<path d="M12.4877 3.83984V7.69533H12.24V3.83984H12.4877ZM12.4877 3.83984C12.4877 6.88242 15.6774 9.0192 15.6774 12.0618C15.6774 13.1534 15.4452 14.2373 15.0426 15.2515C14.9652 15.3753 14.8413 15.4373 14.7329 15.4373C14.5316 15.4373 14.3303 15.2669 14.3768 15.0192C14.7793 14.0747 15.0271 13.076 15.0271 12.054C15.0271 10.4669 13.5793 8.84888 12.48 7.68759V3.83984H12.4877Z" fill="#006497"/>
<path d="M10.8232 15.0811C11.6748 15.0811 12.4877 15.5146 12.4877 16.4514C12.4877 17.543 11.6361 18.3172 10.9161 18.7507C10.3742 19.0759 9.76255 19.2772 9.12771 19.2772C8.2761 19.2772 7.4632 18.8436 7.4632 17.9069C7.4632 16.8152 8.31481 16.0411 9.03481 15.6075C9.57674 15.2823 10.1884 15.0811 10.8232 15.0811Z" fill="#006497"/>
<path d="M12.3406 3.68506H12.1471C12.0616 3.68506 11.9922 3.75438 11.9922 3.8399V16.3122C11.9922 16.3977 12.0616 16.467 12.1471 16.467H12.3406C12.4262 16.467 12.4955 16.3977 12.4955 16.3122V3.8399C12.4955 3.75438 12.4262 3.68506 12.3406 3.68506Z" fill="#006497"/>
</svg>
