<svg width="24" height="24" viewBox="0 0 24 24" fill="none" xmlns="http://www.w3.org/2000/svg">
<path d="M11.7832 5.54312L14.2839 1.11473V1.00635H12.0619L11.5432 1.98183H11.6748C11.8142 1.78054 11.9381 1.65667 12.0464 1.60248C12.1548 1.54828 12.3484 1.52506 12.6426 1.52506H13.7032L11.52 5.41925L11.7832 5.54312ZM15.6619 16.2657C15.8787 15.8012 16.0181 15.3057 16.0181 14.8025C16.0181 12.0696 12.9135 10.2812 12.9135 7.55603C12.9135 7.47086 12.8439 7.40119 12.7587 7.40119H12.5652C12.48 7.40119 12.4103 7.47086 12.4103 7.55603V19.1457C12.1006 18.9134 11.6748 18.7973 11.2413 18.7973C10.6064 18.7973 9.99483 18.9986 9.4529 19.3238C8.72516 19.7573 7.88129 20.5238 7.88129 21.6231C7.88129 22.5676 8.70193 22.9934 9.5458 22.9934C10.1806 22.9934 10.7923 22.7922 11.3342 22.467C12.0619 22.0334 12.9058 21.267 12.9058 20.1676C12.9058 20.1289 12.8981 20.0902 12.8903 20.0515C12.8903 20.036 12.9058 20.0283 12.9058 20.0205V14.1057C13.9974 15.1431 15.4529 16.5754 15.4529 18.0696C15.4529 18.9676 15.2052 19.858 14.8026 20.6631C14.7561 20.9109 14.9574 21.0812 15.1587 21.0812C15.2671 21.0812 15.391 21.0193 15.4684 20.8954C15.871 19.9973 16.1032 19.0451 16.1032 18.0696C16.1032 17.4193 15.9329 16.8386 15.6542 16.2657H15.6619ZM15.2439 15.5225C14.2994 14.0128 12.9135 12.6502 12.9135 10.8309C13.9587 11.8605 15.3677 13.316 15.3677 14.7947C15.3677 15.0425 15.3213 15.2902 15.2439 15.5225Z" fill="#006497"/>
</svg>
