<svg width="24" height="24" viewBox="0 0 24 24" fill="none" xmlns="http://www.w3.org/2000/svg">
<path d="M11.6516 5.52799C11.9071 5.52799 12.1703 5.46605 12.4181 5.33444C12.6039 5.24153 12.7819 5.10992 12.9445 4.9396C13.1071 4.76928 13.2464 4.56799 13.3626 4.32024C13.4787 4.0725 13.5329 3.80153 13.5329 3.49186C13.5329 3.03508 13.3781 2.67121 13.0761 2.41573C12.8826 2.25315 12.6039 2.13702 12.2477 2.08282L12.4955 1.53315H13.8348L13.9897 0.991211H12.5032L11.7987 2.59379C12.0852 2.62476 12.3097 2.67895 12.48 2.75637C12.6503 2.83379 12.7897 2.97315 12.9058 3.1667C13.0142 3.36024 13.0684 3.5925 13.0684 3.87121C13.0684 4.26605 12.9677 4.58347 12.7587 4.83121C12.5497 5.07895 12.3252 5.20282 12.0774 5.20282C12.0155 5.20282 11.9613 5.19508 11.9148 5.17186C11.8606 5.14863 11.7832 5.10218 11.6981 5.02476C11.5587 4.90863 11.4271 4.8467 11.311 4.8467C11.2258 4.8467 11.1561 4.87766 11.1019 4.93186C11.0477 4.98605 11.0168 5.05573 11.0168 5.13315C11.0168 5.23379 11.0632 5.31895 11.1484 5.38089C11.28 5.47379 11.4503 5.52799 11.6748 5.52799H11.6516ZM15.6619 16.2893C15.8787 15.8248 16.0181 15.3293 16.0181 14.826C16.0181 12.0931 12.9135 10.3048 12.9135 7.5796C12.9135 7.49444 12.8439 7.42476 12.7587 7.42476H12.5652C12.48 7.42476 12.4103 7.49444 12.4103 7.5796V19.1693C12.1006 18.937 11.6748 18.8209 11.2413 18.8209C10.6064 18.8209 9.99483 19.0222 9.4529 19.3473C8.72516 19.7809 7.88129 20.5473 7.88129 21.6467C7.88129 22.5912 8.70193 23.017 9.5458 23.017C10.1806 23.017 10.7923 22.8157 11.3342 22.4906C12.0619 22.057 12.9058 21.2906 12.9058 20.1912C12.9058 20.1525 12.8981 20.1138 12.8903 20.0751C12.8903 20.0596 12.9058 20.0519 12.9058 20.0441V14.1293C13.9974 15.1667 15.4529 16.599 15.4529 18.0931C15.4529 18.9912 15.2052 19.8815 14.8026 20.6867C14.7561 20.9344 14.9574 21.1048 15.1587 21.1048C15.2671 21.1048 15.391 21.0428 15.4684 20.919C15.871 20.0209 16.1032 19.0686 16.1032 18.0931C16.1032 17.4428 15.9329 16.8622 15.6542 16.2893H15.6619ZM15.2439 15.546C14.2994 14.0364 12.9135 12.6738 12.9135 10.8544C13.9587 11.8841 15.3677 13.3396 15.3677 14.8183C15.3677 15.066 15.3213 15.3138 15.2439 15.546Z" fill="#006497"/>
</svg>
