<svg width="24" height="24" viewBox="0 0 24 24" fill="none" xmlns="http://www.w3.org/2000/svg">
<path d="M15.6619 16.3122C15.8787 15.8477 16.0181 15.3522 16.0181 14.849C16.0181 12.1161 12.9135 10.3277 12.9135 7.60254C12.9135 7.51738 12.8439 7.4477 12.7587 7.4477H12.5652C12.48 7.4477 12.4103 7.51738 12.4103 7.60254V19.1922C12.1006 18.96 11.6748 18.8438 11.2413 18.8438C10.6064 18.8438 9.99483 19.0451 9.4529 19.3703C8.72516 19.8038 7.88129 20.5703 7.88129 21.6696C7.88129 22.6142 8.70193 23.04 9.5458 23.04C10.1806 23.04 10.7923 22.8387 11.3342 22.5135C12.0619 22.08 12.9058 21.3135 12.9058 20.2142C12.9058 20.1754 12.8981 20.1367 12.8903 20.098C12.8903 20.0825 12.9058 20.0748 12.9058 20.0671V14.1522C13.9974 15.1819 15.4529 16.6219 15.4529 18.1161C15.4529 19.0142 15.2052 19.9045 14.8026 20.7096C14.7561 20.9574 14.9574 21.1277 15.1587 21.1277C15.2671 21.1277 15.391 21.0658 15.4684 20.9419C15.871 20.0438 16.1032 19.0916 16.1032 18.1161C16.1032 17.4658 15.9329 16.8851 15.6542 16.3122H15.6619ZM15.2439 15.569C14.2994 14.0593 12.9135 12.6967 12.9135 10.8774C13.9587 11.9148 15.3677 13.3625 15.3677 14.8413C15.3677 15.089 15.3213 15.3367 15.2439 15.569ZM12.2632 5.5819C12.6503 5.5819 13.0142 5.39609 13.3548 5.02448C13.6955 4.65286 13.8581 4.20383 13.8581 3.68512C13.8581 3.34448 13.7574 3.07351 13.5639 2.87222C13.3703 2.67093 13.1303 2.57028 12.8516 2.57028C12.7045 2.57028 12.511 2.62448 12.271 2.72512C12.5342 2.28383 12.8439 1.91996 13.2 1.64125C13.5561 1.36254 13.92 1.17674 14.2916 1.09157V0.959961C13.9587 0.990929 13.6723 1.05286 13.4477 1.13803C13.0606 1.28512 12.6968 1.51738 12.3406 1.8348C11.9845 2.14448 11.7058 2.52383 11.4968 2.95738C11.2877 3.39093 11.1871 3.83996 11.1871 4.28899C11.1871 4.62964 11.28 4.93932 11.4581 5.1948C11.6439 5.45803 11.9071 5.58964 12.2632 5.58964V5.5819ZM12.1161 2.99609C12.2323 2.91867 12.3252 2.86448 12.3948 2.83351C12.4645 2.80254 12.5342 2.7948 12.6116 2.7948C12.7897 2.7948 12.9445 2.86448 13.0684 3.00383C13.1923 3.14319 13.2619 3.34448 13.2619 3.59996C13.2619 4.07996 13.1535 4.51351 12.9368 4.87738C12.72 5.24125 12.48 5.42706 12.2323 5.42706C12.0774 5.42706 11.9458 5.35738 11.8219 5.22577C11.7058 5.09415 11.6439 4.90835 11.6439 4.66835C11.6439 4.21157 11.7987 3.65415 12.1161 2.98835V2.99609Z" fill="#006497"/>
</svg>
