<svg width="24" height="24" viewBox="0 0 24 24" fill="none" xmlns="http://www.w3.org/2000/svg">
<path d="M12.9213 7.60261C12.9213 7.51745 12.8516 7.44777 12.7665 7.44777H12.5729C12.4877 7.44777 12.4181 7.51745 12.4181 7.60261V19.1923C12.1084 18.96 11.6826 18.8439 11.249 18.8439C10.6142 18.8439 10.0026 19.0452 9.46065 19.3704C8.73291 19.8039 7.88904 20.5704 7.88904 21.6697C7.88904 22.6142 8.70968 23.04 9.55355 23.04C10.1884 23.04 10.8 22.8387 11.3419 22.5136C12.0697 22.08 12.9136 21.3136 12.9136 20.2142C12.9136 20.1755 12.9058 20.1368 12.8981 20.0981C12.8981 20.0826 12.9136 20.0749 12.9136 20.0671V11.4581C14.0052 12.6116 15.4607 14.2375 15.4607 15.8245C15.4607 16.8465 15.2129 17.8452 14.8103 18.7897C14.7639 19.0375 14.9652 19.2078 15.1665 19.2078C15.2748 19.2078 15.3987 19.1458 15.4761 19.022C15.8787 18 16.111 16.9239 16.111 15.8323C16.111 12.7897 12.9213 10.6529 12.9213 7.61035V7.60261ZM11.7523 5.58971C12.0542 5.58971 12.3407 5.51229 12.6194 5.36519C12.8903 5.2181 13.1071 5.00132 13.2697 4.73035C13.4245 4.45164 13.5097 4.18068 13.5097 3.90971C13.5097 3.66197 13.4477 3.45293 13.3316 3.27487C13.2155 3.09681 13.0452 2.96519 12.8129 2.87229C13.1768 2.72519 13.44 2.55487 13.5871 2.36906C13.7342 2.18326 13.8116 1.98971 13.8116 1.78842C13.8116 1.54842 13.7342 1.35487 13.5716 1.20003C13.409 1.04519 13.2 0.967773 12.9445 0.967773C12.7355 0.967773 12.5342 1.02971 12.3561 1.16132C12.1781 1.29293 12.031 1.48648 11.9148 1.74197L12.0387 1.78068C12.2323 1.47874 12.449 1.3239 12.6968 1.3239C12.8516 1.3239 12.9832 1.3781 13.0916 1.49422C13.2 1.61035 13.2542 1.74971 13.2542 1.92003C13.2542 2.15229 13.1613 2.34584 12.9677 2.51616C12.7045 2.74842 12.3097 2.911 11.7832 2.98842V3.08132C12.0077 3.09681 12.209 3.151 12.3948 3.25164C12.5807 3.35229 12.72 3.4839 12.8052 3.65422C12.8903 3.81681 12.9368 4.00261 12.9368 4.21939C12.9368 4.47487 12.8748 4.72261 12.7432 4.94713C12.6116 5.17939 12.449 5.28777 12.2555 5.28777C12.1781 5.28777 12.0929 5.27229 12.0155 5.24906C11.9381 5.22584 11.8297 5.17164 11.6981 5.09422C11.5587 5.01681 11.4736 4.97035 11.4426 4.96261C11.3884 4.94713 11.3265 4.93939 11.2723 4.93939C11.1948 4.93939 11.1252 4.97035 11.0632 5.02455C11.009 5.07874 10.9781 5.14842 10.9781 5.2181C10.9781 5.30326 11.0245 5.38068 11.1174 5.45035C11.2568 5.54326 11.4658 5.59745 11.7445 5.59745L11.7523 5.58971Z" fill="#006497"/>
</svg>
