<?xml version="1.0" encoding="utf-8"?>
<!-- Generator: $$$/GeneralStr/196=Adobe Illustrator 27.6.0, SVG Export Plug-In . SVG Version: 6.00 Build 0)  -->
<svg version="1.1" id="Ebene_1" xmlns="http://www.w3.org/2000/svg" xmlns:xlink="http://www.w3.org/1999/xlink" x="0px" y="0px"
	 viewBox="0 0 24 24" style="enable-background:new 0 0 24 24;" xml:space="preserve">
<style type="text/css">
	.st0{fill:#006497;}
</style>
<g>
	<path class="st0" d="M11.7,5.4c0.3,0,0.6-0.1,0.9-0.2c0.3-0.2,0.5-0.4,0.7-0.7c0.2-0.3,0.2-0.6,0.2-0.9c0-0.3-0.1-0.5-0.2-0.7
		c-0.1-0.2-0.3-0.3-0.5-0.4c0.4-0.2,0.6-0.3,0.8-0.5c0.2-0.2,0.2-0.4,0.2-0.6c0-0.2-0.1-0.4-0.2-0.6c-0.2-0.2-0.4-0.2-0.6-0.2
		c-0.2,0-0.4,0.1-0.6,0.2c-0.2,0.1-0.3,0.3-0.5,0.6l0.1,0C12.2,1.1,12.5,1,12.7,1C12.9,1,13,1,13.1,1.1c0.1,0.1,0.2,0.3,0.2,0.4
		c0,0.2-0.1,0.4-0.3,0.6c-0.3,0.2-0.7,0.4-1.2,0.5v0.1c0.2,0,0.4,0.1,0.6,0.2s0.3,0.2,0.4,0.4C12.9,3.5,13,3.7,13,3.9
		c0,0.3-0.1,0.5-0.2,0.8c-0.1,0.2-0.3,0.4-0.5,0.4c-0.1,0-0.2,0-0.2,0c-0.1,0-0.2-0.1-0.3-0.2c-0.1-0.1-0.2-0.1-0.3-0.1
		c-0.1,0-0.1,0-0.2,0c-0.1,0-0.2,0-0.2,0.1C11,4.8,10.9,4.9,10.9,5c0,0.1,0,0.2,0.1,0.2C11.2,5.3,11.5,5.4,11.7,5.4z"/>
	<path class="st0" d="M15.8,16.5c0.2-0.5,0.4-1,0.4-1.5c0-2.8-3.2-4.7-3.2-7.5c0-0.1-0.1-0.2-0.2-0.2h-0.2c-0.1,0-0.2,0.1-0.2,0.2
		v12c-0.3-0.2-0.8-0.4-1.2-0.4c-0.7,0-1.3,0.2-1.8,0.5c-0.7,0.4-1.6,1.2-1.6,2.4c0,1,0.8,1.4,1.7,1.4c0.7,0,1.3-0.2,1.8-0.5
		c0.7-0.4,1.6-1.2,1.6-2.4c0,0,0-0.1,0-0.1c0,0,0,0,0,0v-4.9v-1.2c1.1,1.1,2.6,2.6,2.6,4.1c0,0.9-0.3,1.8-0.7,2.7
		c0,0.3,0.2,0.4,0.4,0.4c0.1,0,0.2-0.1,0.3-0.2c0.4-0.9,0.7-1.9,0.7-2.9C16.2,17.7,16.1,17,15.8,16.5z M15.4,15.7
		c-1-1.6-2.4-3-2.4-4.8c1.1,1.1,2.5,2.6,2.5,4.1C15.5,15.2,15.4,15.5,15.4,15.7z"/>
</g>
</svg>
